<?xml version="1.0" encoding="UTF-8"?>
<svg version="1.1" xmlns="http://www.w3.org/2000/svg" width="500" height="500">
<path d="M0 0 C0.80837814 -0.00189835 1.61675629 -0.00379669 2.44963074 -0.00575256 C5.12325722 -0.00945927 7.79661248 0.00124078 10.47021484 0.01245117 C12.3244117 0.01364295 14.17860917 0.01409614 16.0328064 0.01383972 C19.918231 0.01540431 23.80356342 0.02369335 27.68896484 0.03710938 C32.68063138 0.05412283 37.6721968 0.05792304 42.66388893 0.05716419 C46.49159722 0.05743547 50.31928321 0.06290943 54.1469841 0.07016563 C55.98827317 0.07335738 57.82956478 0.07532088 59.67085648 0.07605934 C62.23764652 0.07821623 64.80432705 0.08694553 67.37109375 0.09765625 C68.13889664 0.09720306 68.90669952 0.09674988 69.69776917 0.09628296 C74.94167634 0.12844392 74.94167634 0.12844392 76.05615234 1.24291992 C76.15115783 3.70736049 76.1817322 6.14366619 76.16967773 8.60839844 C76.16982376 9.37907654 76.16996979 10.14975464 76.17012024 10.94378662 C76.16942094 13.50316131 76.1616278 16.06246413 76.15380859 18.62182617 C76.15194447 20.39159607 76.15052054 22.16136649 76.14952087 23.93113708 C76.14569523 28.59843358 76.13586455 33.26569916 76.12481689 37.9329834 C76.11460378 42.69189028 76.11002347 47.45080213 76.10498047 52.2097168 C76.09424232 61.55413145 76.07716534 70.89852312 76.05615234 80.24291992 C70.30872594 75.4036981 64.9241512 70.29713886 59.61083984 64.98291016 C58.1682939 63.54258124 56.71788501 62.11048066 55.26708984 60.6784668 C53.89810547 59.31238281 53.89810547 59.31238281 52.50146484 57.91870117 C51.67146973 57.09281494 50.84147461 56.26692871 49.98632812 55.41601562 C48.05615234 53.24291992 48.05615234 53.24291992 47.05615234 50.24291992 C47.5344751 49.76983398 48.01279785 49.29674805 48.50561523 48.80932617 C50.71270574 46.62327586 52.91568867 44.43312864 55.11865234 42.24291992 C56.2469043 41.12723633 56.2469043 41.12723633 57.39794922 39.98901367 C63.35400707 34.05873962 69.06322776 28.01602817 74.05615234 21.24291992 C70.42525877 20.77522723 67.53799408 21.08919669 64.05615234 22.24291992 C59.2375335 25.9701486 55.18971314 30.34698463 51.05615234 34.80541992 C49.3664657 36.58759012 47.67041047 38.36331855 45.96972656 40.13499451 C44.91796328 41.23488141 43.87372791 42.34202609 42.83789062 43.45692444 C41.61531132 44.75577028 40.34011448 46.00471884 39.05615234 47.24291992 C38.39615234 47.24291992 37.73615234 47.24291992 37.05615234 47.24291992 C37.05615234 47.90291992 37.05615234 48.56291992 37.05615234 49.24291992 C36.39615234 49.24291992 35.73615234 49.24291992 35.05615234 49.24291992 C35.05615234 49.90291992 35.05615234 50.56291992 35.05615234 51.24291992 C34.39615234 51.24291992 33.73615234 51.24291992 33.05615234 51.24291992 C33.05615234 51.90291992 33.05615234 52.56291992 33.05615234 53.24291992 C32.39615234 53.24291992 31.73615234 53.24291992 31.05615234 53.24291992 C31.05615234 53.90291992 31.05615234 54.56291992 31.05615234 55.24291992 C30.39615234 55.24291992 29.73615234 55.24291992 29.05615234 55.24291992 C28.84216797 55.79850586 28.62818359 56.3540918 28.40771484 56.92651367 C26.03197528 60.99822917 21.95137743 63.86075452 18.39208984 66.90307617 C15.00539443 71.06597789 15.00539443 71.06597789 16.05615234 81.24291992 C22.98615234 74.31291992 29.91615234 67.38291992 37.05615234 60.24291992 C41.58834431 63.26438124 44.07720652 65.07790509 47.43115234 68.99291992 C50.36425793 72.33725483 53.31688491 75.62818017 56.43115234 78.80541992 C57.05763672 79.44608398 57.68412109 80.08674805 58.32958984 80.74682617 C61.6907802 83.65935084 65.4774288 83.50974106 69.74365234 83.80541992 C71.82677734 83.94979492 73.90990234 84.09416992 76.05615234 84.24291992 C76.05615234 92.16291992 76.05615234 100.08291992 76.05615234 108.24291992 C65.28612234 108.33321134 54.51634281 108.4066301 43.74602032 108.45016861 C38.74516959 108.47106264 33.74459073 108.49941336 28.74389648 108.54467773 C23.91986728 108.58807081 19.09609992 108.61204334 14.27189064 108.62242889 C12.42941985 108.62983204 10.58696373 108.64428838 8.74460411 108.66584015 C6.16804163 108.69478769 3.59256749 108.69887963 1.01586914 108.69702148 C0.25054367 108.71140259 -0.5147818 108.72578369 -1.30329895 108.74060059 C-4.3381068 108.71684628 -6.42431104 108.62010141 -8.91905212 106.80892944 C-10.51405474 102.81516505 -10.34353191 98.99425375 -10.30029297 94.73266602 C-10.30233734 93.76969101 -10.30438171 92.806716 -10.30648804 91.81455994 C-10.30949616 88.63163262 -10.29101956 85.44922317 -10.27197266 82.26635742 C-10.26891535 80.05726245 -10.26703901 77.84816556 -10.26629639 75.6390686 C-10.26169332 71.01052468 -10.2472655 66.38215475 -10.22509766 61.75366211 C-10.1967823 55.81039125 -10.18588284 49.8672573 -10.18141556 43.9239254 C-10.17726617 39.36358258 -10.16745326 34.80326763 -10.15554047 30.242939 C-10.14983011 28.05080006 -10.14507395 25.85865843 -10.1412735 23.66651535 C-10.13442585 20.60909016 -10.12080133 17.55177502 -10.10498047 14.49438477 C-10.10386261 13.58213638 -10.10274475 12.669888 -10.10159302 11.72999573 C-10.05854048 5.47230557 -10.05854048 5.47230557 -8.94384766 3.24291992 C-9.60384766 2.91291992 -10.26384766 2.58291992 -10.94384766 2.24291992 C-7.2078707 -0.24773138 -4.32267143 -0.03180509 0 0 Z M15.05615234 21.24291992 C15.05615234 30.81291992 15.05615234 40.38291992 15.05615234 50.24291992 C20.81513163 45.30665196 26.20548265 40.27981222 31.55639648 34.92797852 C33.00993025 33.4766669 34.47133407 32.03358504 35.93310547 30.59057617 C36.84898438 29.67663086 37.76486328 28.76268555 38.70849609 27.82104492 C39.54372803 26.98992187 40.37895996 26.15879883 41.23950195 25.30249023 C43.27665074 23.45064996 43.27665074 23.45064996 43.05615234 21.24291992 C33.81615234 21.24291992 24.57615234 21.24291992 15.05615234 21.24291992 Z " fill="#D6643D" transform="translate(67.94384765625,178.757080078125)"/>
<path d="M0 0 C7.6725 -0.12375 7.6725 -0.12375 15.5 -0.25 C17.09779297 -0.28641602 18.69558594 -0.32283203 20.34179688 -0.36035156 C27.83873344 -0.41889187 33.62788964 -0.37833365 40 4 C44.51861247 8.75033619 45.16777316 12.37824991 45.25 18.8125 C45.27578125 20.01519531 45.3015625 21.21789062 45.328125 22.45703125 C44.85583796 27.55660676 43.26449307 30.80035273 39.5625 34.3125 C37.20143532 35.86734747 35.69697274 36.42166827 33 37 C33.67546875 38.01320312 34.3509375 39.02640625 35.046875 40.0703125 C40.421875 48.1328125 40.421875 48.1328125 41.73242188 50.10644531 C42.55219947 51.33105915 43.38107014 52.54965557 44.22070312 53.76074219 C47 57.79243827 47 57.79243827 47 60 C41.81836822 60.66020791 37.16192732 60.95354488 32 60 C28.55097866 56.85680321 26.92535373 53.19826414 25 49 C24.04421893 47.46436204 23.0677495 45.94122033 22.0625 44.4375 C20 41.24758842 20 41.24758842 20 39 C17.36 39 14.72 39 12 39 C12.16242188 39.5259375 12.32484375 40.051875 12.4921875 40.59375 C13.12751803 43.60423926 13.13205462 46.42418375 13.125 49.5 C13.12757813 50.6240625 13.13015625 51.748125 13.1328125 52.90625 C13 56 13 56 12 60 C8.04 60 4.08 60 0 60 C0 40.2 0 20.4 0 0 Z M12 13 C11.9010706 15.16480797 11.870289 17.33293785 11.875 19.5 C11.87242187 20.6859375 11.86984375 21.871875 11.8671875 23.09375 C11.66789781 25.89259422 11.66789781 25.89259422 13 27 C15.08043713 27.12635423 17.16576212 27.17581705 19.25 27.1875 C20.38953125 27.20167969 21.5290625 27.21585938 22.703125 27.23046875 C25.94502298 27.00384318 28.12971682 26.49275676 31 25 C32.52491998 21.95016004 32.23562548 19.3576631 32 16 C30.45737187 13.89641619 29.31891683 13.15945841 27 12 C24.6474616 11.9030469 22.2920305 11.8702095 19.9375 11.875 C18.66777344 11.87242187 17.39804687 11.86984375 16.08984375 11.8671875 C13.12899299 11.64564416 13.12899299 11.64564416 12 13 Z " fill="#19365A" transform="translate(290,192)"/>
<path d="M0 0 C4.95 0 9.9 0 15 0 C18.58039095 7.37777529 21.4044555 14.83260822 24.04541016 22.57885742 C27.05003742 31.31716688 30.401196 39.91425337 33.79956055 48.50610352 C34.42278198 50.09829712 34.42278198 50.09829712 35.05859375 51.72265625 C35.43298584 52.66890869 35.80737793 53.61516113 36.19311523 54.59008789 C37 57 37 57 37 60 C32.38 60 27.76 60 23 60 C22.0234375 57.42838542 21.046875 54.85677083 20.0703125 52.28515625 C19.2180914 49.85058944 19.2180914 49.85058944 17 49 C15.40552536 48.91599471 13.80759455 48.89272533 12.2109375 48.90234375 C10.79941406 48.90717773 10.79941406 48.90717773 9.359375 48.91210938 C8.37453125 48.92048828 7.3896875 48.92886719 6.375 48.9375 C5.38242188 48.94201172 4.38984375 48.94652344 3.3671875 48.95117188 C0.9113984 48.96297855 -1.54427104 48.979446 -4 49 C-4.20496094 49.71027344 -4.40992188 50.42054688 -4.62109375 51.15234375 C-5.02521484 52.53099609 -5.02521484 52.53099609 -5.4375 53.9375 C-5.70433594 54.85402344 -5.97117188 55.77054688 -6.24609375 56.71484375 C-7 59 -7 59 -8 60 C-10.18639453 60.07258946 -12.37500389 60.08373783 -14.5625 60.0625 C-16.35880859 60.04896484 -16.35880859 60.04896484 -18.19140625 60.03515625 C-19.11824219 60.02355469 -20.04507813 60.01195312 -21 60 C-22 58 -22 58 -21.3984375 55.97900391 C-21.06070313 55.15319824 -20.72296875 54.32739258 -20.375 53.4765625 C-20.00157471 52.54779297 -19.62814941 51.61902344 -19.2434082 50.66210938 C-18.8330835 49.65986328 -18.42275879 48.65761719 -18 47.625 C-14.92832366 39.97004507 -11.98166632 32.30476778 -9.3125 24.5 C-6.47043281 16.21194206 -3.32402345 8.10737427 0 0 Z M7 17 C6.16142312 19.60258324 5.32896656 22.20685647 4.5 24.8125 C4.26152344 25.55048828 4.02304688 26.28847656 3.77734375 27.04882812 C2.80059864 30.13255196 2 32.74495809 2 36 C5.96 36 9.92 36 14 36 C12.29446483 29.50272314 10.47390635 23.2436684 8 17 C7.67 17 7.34 17 7 17 Z " fill="#193659" transform="translate(245,192)"/>
<path d="M0 0 C3.96 0 7.92 0 12 0 C12.33 7.59 12.66 15.18 13 23 C17.7945205 18.2054795 21.62249017 14.06436702 25.51953125 8.72265625 C26.00808594 8.15417969 26.49664062 7.58570313 27 7 C27.66 7 28.32 7 29 7 C29.268125 6.401875 29.53625 5.80375 29.8125 5.1875 C31.76911544 1.5832084 31.76911544 1.5832084 34 0 C36.81127043 -0.21714241 39.3883345 -0.28284276 42.1875 -0.1875 C42.93708984 -0.17396484 43.68667969 -0.16042969 44.45898438 -0.14648438 C46.30629767 -0.11118539 48.15324066 -0.05737917 50 0 C48.6615301 2.96066143 47.17237185 5.09395083 44.91796875 7.42578125 C44.01401367 8.37420898 44.01401367 8.37420898 43.09179688 9.34179688 C42.46337891 9.99212891 41.83496094 10.64246094 41.1875 11.3125 C36.67890125 15.98127885 32.65078373 20.62465557 29 26 C34.55836115 33.84436772 40.16839528 41.63080708 45.9921875 49.28125 C52 57.41634241 52 57.41634241 52 60 C46.65924249 60.90464525 41.2491631 61.70545048 36 60 C31.02788013 56.20919444 28.0679156 50.32978366 25 45 C23.84736159 43.17854672 22.68364881 41.36395576 21.5 39.5625 C21.0771875 38.86253906 20.654375 38.16257813 20.21875 37.44140625 C19.61546875 36.72791016 19.61546875 36.72791016 19 36 C18.01 36 17.02 36 16 36 C13.41403769 39.92605613 13.59466885 44.01993688 13.4375 48.5625 C13.11857143 56.64428571 13.11857143 56.64428571 12 60 C8.04 60 4.08 60 0 60 C0 40.2 0 20.4 0 0 Z " fill="#1A3251" transform="translate(169,192)"/>
<path d="M0 0 C4.29 0 8.58 0 13 0 C16.76371618 8.81591178 20.12782824 17.71025022 23.3125 26.75 C23.77118256 28.04437783 24.23016549 29.33864925 24.68945312 30.6328125 C25.79590857 33.75418154 26.89936726 36.8765741 28 40 C30.35364157 36.46953765 31.63060852 32.79970372 33.0390625 28.83203125 C33.32478119 28.03721848 33.61049988 27.2424057 33.90487671 26.42350769 C34.81540318 23.88785548 35.72026512 21.35022373 36.625 18.8125 C37.24181516 17.09166337 37.85899829 15.37095858 38.4765625 13.65039062 C39.98864696 9.43511103 41.49565477 5.21804744 43 1 C47.62 1 52.24 1 57 1 C56.19128977 5.8522614 55.06925414 9.91830556 53.3125 14.4375 C53.04630859 15.13560791 52.78011719 15.83371582 52.50585938 16.55297852 C50.72362679 21.20303301 48.8689822 25.82175503 47 30.4375 C44.49749469 36.62479659 42.232109 42.86955593 40.09179688 49.19116211 C38.67881446 53.30790815 37.04127313 57.14024757 35 61 C33.06440687 61.13504138 31.126128 61.23201129 29.1875 61.3125 C27.56908203 61.39951172 27.56908203 61.39951172 25.91796875 61.48828125 C23 61 23 61 21.48022461 58.87548828 C19.89930684 55.8043932 18.6239722 52.73362903 17.3984375 49.50390625 C17.16034866 48.88178757 16.92225983 48.25966888 16.67695618 47.61869812 C15.90549603 45.60151813 15.14017468 43.58207162 14.375 41.5625 C13.30927507 38.7656639 12.23976596 35.97029566 11.16796875 33.17578125 C10.90158096 32.48076508 10.63519318 31.7857489 10.36073303 31.06967163 C7.56815809 23.81875847 4.58943119 16.64483357 1.50341797 9.51391602 C1.15553223 8.68947998 0.80764648 7.86504395 0.44921875 7.015625 C0.14330811 6.30696289 -0.16260254 5.59830078 -0.4777832 4.86816406 C-1 3 -1 3 0 0 Z " fill="#193454" transform="translate(341,191)"/>
<path d="M0 0 C4.29 0 8.58 0 13 0 C13 19.8 13 39.6 13 60 C9.04 60 5.08 60 1 60 C0.12268589 56.49074356 -0.12155154 53.96888318 -0.11352539 50.40527344 C-0.11344986 49.28441345 -0.11337433 48.16355347 -0.11329651 47.00872803 C-0.10813522 45.80444153 -0.10297394 44.60015503 -0.09765625 43.359375 C-0.09553383 41.50339691 -0.09553383 41.50339691 -0.09336853 39.60992432 C-0.0887211 36.32855059 -0.07974347 33.04722627 -0.06866455 29.76586914 C-0.0584152 26.41422989 -0.05394859 23.06258852 -0.04882812 19.7109375 C-0.03780024 13.1406032 -0.02053617 6.57031119 0 0 Z " fill="#19365A" transform="translate(406,192)"/>
<path d="M0 0 C2.97 0 5.94 0 9 0 C8.98428955 0.71655762 8.9685791 1.43311523 8.95239258 2.17138672 C8.89018137 5.40584476 8.85105351 8.64017719 8.8125 11.875 C8.78736328 13.00292969 8.76222656 14.13085938 8.73632812 15.29296875 C8.72666016 16.36933594 8.71699219 17.44570312 8.70703125 18.5546875 C8.6913208 19.54968262 8.67561035 20.54467773 8.65942383 21.56982422 C8.77181396 22.37178223 8.8842041 23.17374023 9 24 C9.99 24.66 10.98 25.32 12 26 C12 27.32 12 28.64 12 30 C12.99 30.33 13.98 30.66 15 31 C14.01 33.475 14.01 33.475 13 36 C12.34 36 11.68 36 11 36 C10.11360611 38.65918166 9.82010975 40.48064641 9.68359375 43.23046875 C9.64169922 44.03291016 9.59980469 44.83535156 9.55664062 45.66210938 C9.49766602 46.91217773 9.49766602 46.91217773 9.4375 48.1875 C9.39431641 49.03248047 9.35113281 49.87746094 9.30664062 50.74804688 C9.20068482 52.83184433 9.0998498 54.91590103 9 57 C6.03 57 3.06 57 0 57 C-1.29424958 54.41150084 -1.08124712 52.620693 -1.02172852 49.72412109 C-0.99158409 48.07263565 -0.99158409 48.07263565 -0.96083069 46.38778687 C-0.93379562 45.19505157 -0.90676056 44.00231628 -0.87890625 42.7734375 C-0.85529526 41.55548492 -0.83168427 40.33753235 -0.80735779 39.08267212 C-0.73058376 35.18000019 -0.64661843 31.27751988 -0.5625 27.375 C-0.50929309 24.73438448 -0.45655261 22.09375952 -0.40429688 19.453125 C-0.27495004 12.9686306 -0.13969354 6.48427931 0 0 Z " fill="#19365A" transform="translate(171,193)"/>
<path d="M0 0 C5.1424713 -0.56178258 5.1424713 -0.56178258 8 0 C10.03433406 2.28548641 11.16053012 3.85948766 12.5 6.5 C12.84546875 7.12003906 13.1909375 7.74007813 13.546875 8.37890625 C14.39181964 9.90450073 15.19971488 11.45051179 16 13 C16.33 8.71 16.66 4.42 17 0 C18.98 0 20.96 0 23 0 C23 8.25 23 16.5 23 25 C21.35 25.33 19.7 25.66 18 26 C12.85022614 22.17068098 10.14774015 16.49024445 7 11 C6.67 15.62 6.34 20.24 6 25 C4.35 25.33 2.7 25.66 1 26 C0 25 0 25 -0.11352539 22.59155273 C-0.10828857 21.54942627 -0.10305176 20.5072998 -0.09765625 19.43359375 C-0.09443359 18.30888672 -0.09121094 17.18417969 -0.08789062 16.02539062 C-0.07951172 14.84138672 -0.07113281 13.65738281 -0.0625 12.4375 C-0.05798828 11.24962891 -0.05347656 10.06175781 -0.04882812 8.83789062 C-0.03699675 5.89187774 -0.02051287 2.94596319 0 0 Z " fill="#C86546" transform="translate(366,267)"/>
<path d="M0 0 C4.13414642 3.5077606 5.61443263 6.15525648 6.1328125 11.72265625 C5.99792433 15.61193193 4.17843827 18.43617732 1.71875 21.33203125 C-1.3347863 23.94626162 -5.0027013 24.48811656 -8.9375 24.75 C-13.63640503 23.36343786 -16.8396164 21.56277982 -19.9375 17.75 C-21.51483174 13.01800479 -21.46507348 9.19388532 -19.75 4.5 C-15.20963406 -2.38883109 -7.31425538 -3.1124491 0 0 Z M-13.9375 6.75 C-15.00154602 10.40765818 -15.45008002 12.6042329 -13.875 16.125 C-11.1809698 18.3845092 -9.44482933 18.75 -5.9375 18.75 C-2.92770117 17.40884601 -2.92770117 17.40884601 -0.9375 14.75 C-0.10416667 11.25 -0.10416667 11.25 -0.9375 7.75 C-3.12248756 5.21808501 -3.12248756 5.21808501 -5.9375 3.75 C-9.66277067 3.75 -11.05825508 4.40114231 -13.9375 6.75 Z " fill="#C16245" transform="translate(350.9375,268.25)"/>
<path d="M0 0 C3.03790531 3.13485973 3.8910063 6.23704408 4.5 10.5 C3.89181195 14.75731638 2.9437834 17.80953084 0 21 C-3.62432333 23.25170726 -6.87866935 24.02242661 -11.125 23.9375 C-15.20377725 22.60746394 -18.83383076 20.88168325 -21.15234375 17.140625 C-22.97609116 12.53503247 -22.68170603 7.65044619 -20.8125 3.125 C-18.18024636 0.03890952 -15.49370862 -1.41911332 -11.75 -2.875 C-7.4256891 -3.07155959 -3.79925733 -2.06974467 0 0 Z M-15 6 C-16.36636155 7.15866921 -16.36636155 7.15866921 -16.375 10.3125 C-16.3447603 14.07335383 -16.3447603 14.07335383 -13.875 16.5 C-11.07870047 18.2409198 -11.07870047 18.2409198 -7.875 18 C-4.99064335 17.18755589 -4.99064335 17.18755589 -3.0625 15.375 C-1.48741998 11.8542329 -1.93595398 9.65765818 -3 6 C-7.94049916 2.07293656 -9.93840452 2.75538751 -15 6 Z " fill="#B96246" transform="translate(217,269)"/>
<path d="M0 0 C1.65 0 3.3 0 5 0 C6.36728108 4.10184325 6.02167617 7.89451528 5.9375 12.1875 C5.86344089 15.08211111 5.86344089 15.08211111 7 18 C8.8522367 19.00478037 8.8522367 19.00478037 11 19 C12.76103576 18.05928646 12.76103576 18.05928646 14 16 C14.37674518 13.20748417 14.60191941 10.61220799 14.6875 7.8125 C14.72166016 7.06291016 14.75582031 6.31332031 14.79101562 5.54101562 C14.87334294 3.69453162 14.93835281 1.84729006 15 0 C16.98 0 18.96 0 21 0 C21.10852923 2.87602455 21.1875515 5.74790832 21.25 8.625 C21.30027344 9.83736328 21.30027344 9.83736328 21.3515625 11.07421875 C21.44081303 16.56312634 20.68997027 19.66005332 17 24 C13.9225095 25.91303463 12.14190292 26.00253398 8.5 25.9375 C4.10938066 24.76144125 2.71899819 23.64687363 0 20 C-0.60437106 16.53984624 -0.47322557 13.18637206 -0.3125 9.6875 C-0.28994141 8.75615234 -0.26738281 7.82480469 -0.24414062 6.86523438 C-0.18542078 4.5751604 -0.10336858 2.28842125 0 0 Z " fill="#C2684B" transform="translate(256,267)"/>
<path d="M0 0 C0.33 0 0.66 0 1 0 C1 31.35 1 62.7 1 95 C1.66 95 2.32 95 3 95 C3.33 95.66 3.66 96.32 4 97 C7.55340652 98.18446884 10.80082447 98.17568753 14.50073242 98.20532227 C15.26194901 98.21522186 16.02316559 98.22512146 16.80744934 98.23532104 C19.32342418 98.26690729 21.83941789 98.29168209 24.35546875 98.31640625 C26.09996532 98.33697826 27.84445693 98.3579748 29.58894348 98.37937927 C34.18053167 98.43457442 38.77216465 98.48399499 43.36383057 98.53222656 C48.04923489 98.58246024 52.73457417 98.63813657 57.41992188 98.69335938 C66.61322774 98.8009097 75.80658887 98.90185869 85 99 C85 92.07 85 85.14 85 78 C83.35 78 81.7 78 80 78 C80 77.67 80 77.34 80 77 C81.98 77 83.96 77 86 77 C86 84.92 86 92.84 86 101 C75.22997 101.09029142 64.46019047 101.16371018 53.68986797 101.20724869 C48.68901724 101.22814272 43.68843838 101.25649344 38.68774414 101.30175781 C33.86371493 101.34515089 29.03994757 101.36912342 24.2157383 101.37950897 C22.3732675 101.38691212 20.53081138 101.40136845 18.68845177 101.42292023 C16.11188929 101.45186776 13.53641515 101.4559597 10.9597168 101.45410156 C10.19439133 101.46848267 9.42906586 101.48286377 8.64054871 101.49768066 C5.59950089 101.47387752 3.5187489 101.37891196 1.02380371 99.55651855 C-0.55741023 95.60810273 -0.39150097 91.85616359 -0.34057617 87.64160156 C-0.34101425 86.69492111 -0.34145233 85.74824066 -0.34190369 84.77287292 C-0.33981446 81.64524682 -0.31647672 78.51815742 -0.29296875 75.390625 C-0.28737328 73.22158094 -0.28310295 71.05253309 -0.28010559 68.88348389 C-0.26865299 63.1754916 -0.23918203 57.46772844 -0.20599365 51.75982666 C-0.17530185 45.93496805 -0.16160214 40.11007241 -0.14648438 34.28515625 C-0.1143129 22.85667018 -0.06311135 11.42835415 0 0 Z " fill="#BD6B51" transform="translate(58,186)"/>
<path d="M0 0 C7.6725 -0.12375 7.6725 -0.12375 15.5 -0.25 C17.09779297 -0.28641602 18.69558594 -0.32283203 20.34179688 -0.36035156 C27.83873344 -0.41889187 33.62788964 -0.37833365 40 4 C44.5910044 8.82644052 45.15347418 12.46704281 45.1875 19 C45.20167969 20.2375 45.21585937 21.475 45.23046875 22.75 C45 26 45 26 43 29 C43.02320313 28.09636719 43.04640625 27.19273437 43.0703125 26.26171875 C43.08835937 25.08222656 43.10640625 23.90273437 43.125 22.6875 C43.14820313 21.51574219 43.17140625 20.34398437 43.1953125 19.13671875 C43.25320618 15.83606339 43.25320618 15.83606339 41 13 C41 12.01 41 11.02 41 10 C40.34 9.67 39.68 9.34 39 9 C39 8.34 39 7.68 39 7 C38.01 7.33 37.02 7.66 36 8 C36 7.34 36 6.68 36 6 C33.525 5.01 33.525 5.01 31 4 C31 3.34 31 2.68 31 2 C21.43 1.67 11.86 1.34 2 1 C2.33 19.15 2.66 37.3 3 56 C5.31 56.66 7.62 57.32 10 58 C10.33 52.72 10.66 47.44 11 42 C11.66 42.33 12.32 42.66 13 43 C13.02709444 45.08326131 13.04643873 47.16662441 13.0625 49.25 C13.07410156 50.41015625 13.08570313 51.5703125 13.09765625 52.765625 C13 56 13 56 12 60 C8.04 60 4.08 60 0 60 C0 40.2 0 20.4 0 0 Z " fill="#1D2F48" transform="translate(290,192)"/>
<path d="M0 0 C1.31291016 -0.03867187 1.31291016 -0.03867187 2.65234375 -0.078125 C5.4818869 0.30709643 6.31382925 1.05694757 8.0625 3.25 C7 4.75 7 4.75 5.0625 6.25 C1.375 6.4375 1.375 6.4375 -1.9375 6.25 C-2.2675 7.24 -2.5975 8.23 -2.9375 9.25 C-2.215625 9.353125 -1.49375 9.45625 -0.75 9.5625 C2.4906274 10.35465336 4.48813454 11.10469545 7.0625 13.25 C8.1875 16.625 8.1875 16.625 8.0625 20.25 C5.71860577 23.5172465 3.98238325 24.93004061 0.1875 26.25 C-3.90829746 26.25 -6.28986581 25.0738171 -9.9375 23.25 C-9.2775 21.93 -8.6175 20.61 -7.9375 19.25 C-4.9675 19.25 -1.9975 19.25 1.0625 19.25 C0.7325 18.26 0.4025 17.27 0.0625 16.25 C-2.24854818 15.19952356 -4.58333651 14.19992562 -6.9375 13.25 C-8.9375 11.25 -8.9375 11.25 -9.1328125 9.3046875 C-9.06770833 7.28645833 -9.00260417 5.26822917 -8.9375 3.25 C-8.2775 3.25 -7.6175 3.25 -6.9375 3.25 C-6.9375 2.59 -6.9375 1.93 -6.9375 1.25 C-4.48367866 0.02308933 -2.73765897 0.04824069 0 0 Z " fill="#C56647" transform="translate(409.9375,266.75)"/>
<path d="M0 0 C0 0.99 0 1.98 0 3 C-2 5 -2 5 -5.625 5.125 C-6.73875 5.08375 -7.8525 5.0425 -9 5 C-9.33 5.99 -9.66 6.98 -10 8 C-9.37351563 8.10957031 -8.74703125 8.21914063 -8.1015625 8.33203125 C-7.28429687 8.49058594 -6.46703125 8.64914062 -5.625 8.8125 C-4.81289062 8.96332031 -4.00078125 9.11414063 -3.1640625 9.26953125 C-1 10 -1 10 1 13 C1.42379221 16.88476191 1.61457992 19.10176781 -0.625 22.375 C-3.60557669 24.41434194 -5.3795823 24.92901142 -9 25 C-11.49710646 24.20615127 -13.64216318 23.17891841 -16 22 C-15.67 20.68 -15.34 19.36 -15 18 C-12.03 18 -9.06 18 -6 18 C-5.67 17.01 -5.34 16.02 -5 15 C-5.62648437 14.81824219 -6.25296875 14.63648438 -6.8984375 14.44921875 C-7.71570313 14.19785156 -8.53296875 13.94648438 -9.375 13.6875 C-10.18710938 13.44386719 -10.99921875 13.20023437 -11.8359375 12.94921875 C-14 12 -14 12 -16 9 C-16.4375 6.0625 -16.4375 6.0625 -16 3 C-10.55528341 -2.59595872 -7.15701239 -2.33979251 0 0 Z " fill="#BB6248" transform="translate(184,268)"/>
<path d="M0 0 C4.29 0 8.58 0 13 0 C13 19.8 13 39.6 13 60 C9.04 60 5.08 60 1 60 C0.12268589 56.49074356 -0.12155154 53.96888318 -0.11352539 50.40527344 C-0.11344986 49.28441345 -0.11337433 48.16355347 -0.11329651 47.00872803 C-0.10813522 45.80444153 -0.10297394 44.60015503 -0.09765625 43.359375 C-0.09553383 41.50339691 -0.09553383 41.50339691 -0.09336853 39.60992432 C-0.0887211 36.32855059 -0.07974347 33.04722627 -0.06866455 29.76586914 C-0.0584152 26.41422989 -0.05394859 23.06258852 -0.04882812 19.7109375 C-0.03780024 13.1406032 -0.02053617 6.57031119 0 0 Z M2 1 C1.82688121 3.06196846 1.66197049 5.12462589 1.5 7.1875 C1.4071875 8.33605469 1.314375 9.48460937 1.21875 10.66796875 C0.55258235 21.53152418 1.0933751 32.44902112 1.5 43.3125 C1.54839047 44.65038292 1.59656855 45.98827355 1.64453125 47.32617188 C1.76094608 50.55086275 1.87946846 53.77546083 2 57 C4.73247348 58.36623674 6.98198902 58.128426 10 58 C11.25249942 56.97026525 11.25249942 56.97026525 11.12025452 54.75376892 C11.11803391 53.76115555 11.11581329 52.76854218 11.11352539 51.74584961 C11.11344986 50.62476303 11.11337433 49.50367645 11.11329651 48.34861755 C11.10813522 47.1288472 11.10297394 45.90907684 11.09765625 44.65234375 C11.09553383 42.7899984 11.09553383 42.7899984 11.09336853 40.89002991 C11.08870591 37.58394509 11.07971497 34.27792854 11.06866455 30.97186279 C11.05844827 27.6003885 11.05387045 24.22890717 11.04882812 20.85742188 C11.03777395 14.23826225 11.02101736 7.61913507 11 1 C8.03 1 5.06 1 2 1 Z " fill="#182941" transform="translate(406,192)"/>
<path d="M0 0 C6.6 0 13.2 0 20 0 C20 1.98 20 3.96 20 6 C17.69 6 15.38 6 13 6 C13 12.27 13 18.54 13 25 C9 26 9 26 7 25 C7 18.73 7 12.46 7 6 C4.69 6 2.38 6 0 6 C0 4.02 0 2.04 0 0 Z " fill="#D36642" transform="translate(286,267)"/>
<path d="M0 0 C1.98 0 3.96 0 6 0 C6 6.27 6 12.54 6 19 C8.97 19 11.94 19 15 19 C16 20 16 20 16.0625 22.5625 C16.041875 23.366875 16.02125 24.17125 16 25 C13.7089095 25.19441368 11.41709663 25.38033135 9.125 25.5625 C7.84882813 25.66691406 6.57265625 25.77132813 5.2578125 25.87890625 C2 26 2 26 0 25 C0 16.75 0 8.5 0 0 Z " fill="#BD694F" transform="translate(231,267)"/>
<path d="M0 0 C5.25105442 -0.02464928 10.50207545 -0.04283568 15.75317383 -0.05493164 C17.54094021 -0.05997218 19.32870245 -0.06680454 21.11645508 -0.07543945 C23.68051168 -0.0875173 26.24451397 -0.09323094 28.80859375 -0.09765625 C29.6127623 -0.10281754 30.41693085 -0.10797882 31.24546814 -0.11329651 C33.16401715 -0.11349215 35.08245368 -0.06201983 37 0 C38.7082941 1.7082941 38.11971926 3.86004377 38.12442017 6.13786316 C38.11902725 7.24053276 38.11902725 7.24053276 38.11352539 8.36547852 C38.11367142 9.13615662 38.11381744 9.90683472 38.1139679 10.7008667 C38.1132686 13.26024139 38.10547545 15.8195442 38.09765625 18.37890625 C38.09579213 20.14867615 38.0943682 21.91844656 38.09336853 23.68821716 C38.08954288 28.35551366 38.0797122 33.02277923 38.06866455 37.69006348 C38.05845144 42.44897035 38.05387113 47.20788221 38.04882812 51.96679688 C38.03808997 61.31121153 38.02101299 70.6556032 38 80 C36.8921646 79.05893615 35.78555197 78.11643273 34.67944336 77.17333984 C34.06306503 76.64864105 33.44668671 76.12394226 32.81163025 75.58334351 C30.28208097 73.37254722 27.92118864 71.01599944 25.5625 68.625 C24.69753906 67.75101562 23.83257812 66.87703125 22.94140625 65.9765625 C22.30074219 65.32429688 21.66007812 64.67203125 21 64 C22.8671875 63.39453125 22.8671875 63.39453125 25 63 C27.87583411 65.28375062 29.56036361 67.64084842 31 71 C33.475 70.505 33.475 70.505 36 70 C36 55.48 36 40.96 36 26 C32.535 28.97 32.535 28.97 29 32 C28.01 32.495 28.01 32.495 27 33 C28.39103601 29.75424931 29.96642173 28.13971482 32.625 25.875 C37.24150733 20.88573121 36.56444508 15.39881014 36.35595703 8.99560547 C36.26203796 6.99575538 36.13444944 4.9975346 36 3 C28.31849326 2.01391661 20.67465629 1.68841256 12.9375 1.4375 C11.06674805 1.37272461 11.06674805 1.37272461 9.15820312 1.30664062 C6.10555909 1.20137704 3.05284477 1.09924059 0 1 C0 0.67 0 0.34 0 0 Z " fill="#AA6650" transform="translate(106,179)"/>
<path d="M0 0 C3.47129192 0.938187 4.77084235 1.66021452 6.8125 4.6875 C8.3684403 9.02775453 8.83996253 12.43785013 7.37890625 16.89453125 C5.64960507 20.54527819 3.86824075 22.42238896 0.125 24 C-3.5827365 25.10545477 -6.25863997 25.2200087 -10 24 C-13.94902543 21.7976589 -16.3433651 20.21828332 -18 16 C-18.265625 13.74609375 -18.265625 13.74609375 -18.25 11.4375 C-18.25773438 10.29087891 -18.25773438 10.29087891 -18.265625 9.12109375 C-18 7 -18 7 -16 4 C-16.01160156 4.78246094 -16.02320313 5.56492187 -16.03515625 6.37109375 C-16.04417969 7.38300781 -16.05320313 8.39492188 -16.0625 9.4375 C-16.07410156 10.44683594 -16.08570313 11.45617187 -16.09765625 12.49609375 C-16.28612676 14.94021067 -16.28612676 14.94021067 -15 16 C-15.37125 14.63875 -15.37125 14.63875 -15.75 13.25 C-16 10 -16 10 -14.125 7.75 C-13.073125 6.88375 -13.073125 6.88375 -12 6 C-11.67 5.34 -11.34 4.68 -11 4 C-9.68 4.33 -8.36 4.66 -7 5 C-7.99 5.5259375 -7.99 5.5259375 -9 6.0625 C-11.35759384 7.9505684 -11.35759384 7.9505684 -11.5 11.5 C-11.31905991 14.96573829 -11.31905991 14.96573829 -9.375 16.9375 C-6.43969547 18.25066255 -4.18136394 18.21691118 -1 18 C-1 18.66 -1 19.32 -1 20 C-1.66 20.33 -2.32 20.66 -3 21 C-1.35 20.67 0.3 20.34 2 20 C2.33 19.01 2.66 18.02 3 17 C3.99 17 4.98 17 6 17 C5.99388572 9.09207518 5.99388572 9.09207518 2.4375 2.3125 C1.633125 1.549375 0.82875 0.78625 0 0 Z " fill="#BF6245" transform="translate(213,268)"/>
<path d="M0 0 C4.95 0 9.9 0 15 0 C18.02964697 6.415723 20.82465251 12.88141996 23.375 19.5 C23.64973145 20.19416016 23.92446289 20.88832031 24.20751953 21.60351562 C26.11724584 26.64826249 26.11724584 26.64826249 25 30 C24.71125 29.030625 24.4225 28.06125 24.125 27.0625 C23.35785318 23.89335797 23.35785318 23.89335797 21 23 C20.36182933 20.6954948 19.97962677 18.38503677 19.5625 16.03125 C19.376875 15.3609375 19.19125 14.690625 19 14 C18.34 13.67 17.68 13.34 17 13 C16.66666667 11 16.33333333 9 16 7 C15.34 6.67 14.68 6.34 14 6 C14 4.68 14 3.36 14 2 C8.555 1.505 8.555 1.505 3 1 C2.34 2.65 1.68 4.3 1 6 C-0.54668391 9.54465491 -2.10043108 13.08606367 -3.66015625 16.625 C-4.79391059 19.480871 -5.47168453 21.99553928 -6 25 C-6.37125 25.721875 -6.7425 26.44375 -7.125 27.1875 C-7.558125 28.0846875 -7.558125 28.0846875 -8 29 C-7.67 29.66 -7.34 30.32 -7 31 C-7.99 31 -8.98 31 -10 31 C-10.103125 31.86625 -10.20625 32.7325 -10.3125 33.625 C-11.04021759 37.19743182 -12.17223408 39.85624261 -14 43 C-14.99 43.495 -14.99 43.495 -16 44 C-11.08639555 29.15918114 -5.93147992 14.46702421 0 0 Z " fill="#17283F" transform="translate(245,192)"/>
<path d="M0 0 C1.98 0 3.96 0 6 0 C6 8.25 6 16.5 6 25 C4.35 25.33 2.7 25.66 1 26 C0 25 0 25 -0.11352539 22.59155273 C-0.10828857 21.54942627 -0.10305176 20.5072998 -0.09765625 19.43359375 C-0.09443359 18.30888672 -0.09121094 17.18417969 -0.08789062 16.02539062 C-0.07951172 14.84138672 -0.07113281 13.65738281 -0.0625 12.4375 C-0.05798828 11.24962891 -0.05347656 10.06175781 -0.04882812 8.83789062 C-0.03699675 5.89187774 -0.02051287 2.94596319 0 0 Z " fill="#CA6443" transform="translate(315,267)"/>
<path d="M0 0 C4.95 0 9.9 0 15 0 C15.33 1.98 15.66 3.96 16 6 C17.32 6 18.64 6 20 6 C20.33 5.34 20.66 4.68 21 4 C21.66 4.66 22.32 5.32 23 6 C24.32 4.68 25.64 3.36 27 2 C29.44839588 5.67259383 31 8.54648201 31 13 C26.38 13 21.76 13 17 13 C16.0234375 10.42838542 15.046875 7.85677083 14.0703125 5.28515625 C13.2180914 2.85058944 13.2180914 2.85058944 11 2 C9.29297265 1.93003986 7.58331997 1.91559846 5.875 1.9375 C4.96492187 1.94652344 4.05484375 1.95554688 3.1171875 1.96484375 C2.06917969 1.98224609 2.06917969 1.98224609 1 2 C0.67 1.34 0.34 0.68 0 0 Z " fill="#193452" transform="translate(251,239)"/>
<path d="M0 0 C-0.474375 0.391875 -0.94875 0.78375 -1.4375 1.1875 C-3.37848749 3.43904548 -3.69953871 5.0705024 -4 8 C-3.67 8.66 -3.34 9.32 -3 10 C-4.28897313 13.8669194 -6.85957719 15.56617232 -10 18 C-10.66 18.99 -11.32 19.98 -12 21 C-11.67 21.66 -11.34 22.32 -11 23 C-12.32 23 -13.64 23 -15 23 C-15 22.01 -15 21.02 -15 20 C-14.34 20 -13.68 20 -13 20 C-13.27617533 18.05925139 -13.27617533 18.05925139 -14 16 C-14.99 15.34 -15.98 14.68 -17 14 C-13.55384615 8.21538462 -13.55384615 8.21538462 -10.75 7.125 C-10.1725 7.08375 -9.595 7.0425 -9 7 C-8.71125 5.865625 -8.4225 4.73125 -8.125 3.5625 C-7.75375 2.386875 -7.3825 1.21125 -7 0 C-4.3333581 -1.33332095 -2.83319697 -0.67102033 0 0 Z " fill="#1A375C" transform="translate(207,197)"/>
<path d="M0 0 C0.33 0 0.66 0 1 0 C1.33 18.81 1.66 37.62 2 57 C4.97 57.33 7.94 57.66 11 58 C10.95359375 56.74703125 10.9071875 55.4940625 10.859375 54.203125 C10.82185187 52.55210719 10.78545229 50.90106358 10.75 49.25 C10.71648437 48.425 10.68296875 47.6 10.6484375 46.75 C10.54887335 40.57702246 10.54887335 40.57702246 13.015625 37.421875 C13.67046875 36.95265625 14.3253125 36.4834375 15 36 C15 36.99 15 37.98 15 39 C14.505 39.495 14.505 39.495 14 40 C13.78812788 42.79553492 13.62351281 45.57537631 13.5 48.375 C13.13357143 56.59928571 13.13357143 56.59928571 12 60 C8.04 60 4.08 60 0 60 C0 40.2 0 20.4 0 0 Z " fill="#19273C" transform="translate(169,192)"/>
<path d="M0 0 C-1 3 -1 3 -3 4 C-3.50729069 5.98714388 -3.50729069 5.98714388 -3.6875 8.3125 C-3.77386719 9.09238281 -3.86023438 9.87226563 -3.94921875 10.67578125 C-4.00213456 13.09769731 -3.93700827 14.76159136 -3 17 C-1.16016576 18.34231442 -1.16016576 18.34231442 1.0625 19.25 C2.16271484 19.75273437 2.16271484 19.75273437 3.28515625 20.265625 C4.13400391 20.62914062 4.13400391 20.62914062 5 21 C5 21.33 5 21.66 5 22 C-1.625 22.25 -1.625 22.25 -5 20 C-5 19.34 -5 18.68 -5 18 C-5.99 18.33 -6.98 18.66 -8 19 C-10.9673946 14.91983243 -11.55733091 12.0159782 -11 7 C-9.75 5.3125 -9.75 5.3125 -8 4 C-7.360625 3.278125 -6.72125 2.55625 -6.0625 1.8125 C-4 0 -4 0 0 0 Z " fill="#CC6846" transform="translate(341,269)"/>
<path d="M0 0 C9.66666667 -0.56862745 9.66666667 -0.56862745 14 3 C16.99196683 5.88511087 17.68719958 8.85802352 18.0703125 12.97265625 C17.93542433 16.86193193 16.11593827 19.68617732 13.65625 22.58203125 C10.60767486 25.19201421 6.9312096 25.75226208 3 26 C-0.6325481 25.16540326 -3.3452084 23.6547916 -6 21 C-5.01 20.67 -4.02 20.34 -3 20 C-2.62875 20.495 -2.2575 20.99 -1.875 21.5 C0.74694393 23.59755514 2.73842472 23.21743835 6 23 C3.36 21.68 0.72 20.36 -2 19 C-1.67 18.34 -1.34 17.68 -1 17 C-0.195625 17.5259375 -0.195625 17.5259375 0.625 18.0625 C3.73274763 19.28924249 5.79431703 18.72856431 9 18 C9.33 18.99 9.66 19.98 10 21 C13.18401907 19.40799046 13.75210812 17.26828825 15 14 C15.15836267 11.0024209 14.7372238 8.99804347 14 6 C11.15037689 3.25973038 8.59769762 2.4706588 4.75 1.8125 C3.85796875 1.65394531 2.9659375 1.49539063 2.046875 1.33203125 C1.37140625 1.22246094 0.6959375 1.11289062 0 1 C0 0.67 0 0.34 0 0 Z " fill="#B46247" transform="translate(339,267)"/>
<path d="M0 0 C1.9140625 0.703125 1.9140625 0.703125 3.9765625 3.953125 C4.8729855 7.53881701 5.27189681 9.30853922 3.9140625 12.703125 C2.9240625 13.363125 1.9340625 14.023125 0.9140625 14.703125 C0.2540625 13.713125 -0.4059375 12.723125 -1.0859375 11.703125 C-0.7559375 11.043125 -0.4259375 10.383125 -0.0859375 9.703125 C-1.4059375 9.703125 -2.7259375 9.703125 -4.0859375 9.703125 C-4.0859375 8.713125 -4.0859375 7.723125 -4.0859375 6.703125 C-5.0759375 6.373125 -6.0659375 6.043125 -7.0859375 5.703125 C-7.0859375 5.373125 -7.0859375 5.043125 -7.0859375 4.703125 C-7.40973876 3.36744479 -7.74251301 2.03389489 -8.0859375 0.703125 C-5.35061855 -0.66453447 -2.97635822 -0.41127859 0 0 Z " fill="#19375C" transform="translate(206.0859375,234.296875)"/>
<path d="M0 0 C1.65 0 3.3 0 5 0 C5 2.43820415 4.95342279 4.87772161 4.82421875 7.3125 C4.77910156 8.529375 4.73398437 9.74625 4.6875 11 C4.62949219 12.216875 4.57148438 13.43375 4.51171875 14.6875 C4.68412887 18.19000856 4.68412887 18.19000856 7.51953125 20.4375 C8.33808594 20.953125 9.15664063 21.46875 10 22 C4.6284507 23.34288732 4.6284507 23.34288732 1.82128906 21.8112793 C0 20 0 20 -0.45410156 17.82348633 C-0.4331543 17.00130615 -0.41220703 16.17912598 -0.390625 15.33203125 C-0.37773437 14.43935547 -0.36484375 13.54667969 -0.3515625 12.62695312 C-0.31804687 11.69818359 -0.28453125 10.76941406 -0.25 9.8125 C-0.23195312 8.87212891 -0.21390625 7.93175781 -0.1953125 6.96289062 C-0.1481655 4.64090111 -0.08238231 2.3209631 0 0 Z " fill="#C76244" transform="translate(256,267)"/>
<path d="M0 0 C0.33 0 0.66 0 1 0 C1 5.61 1 11.22 1 17 C2.629375 16.979375 4.25875 16.95875 5.9375 16.9375 C7.62499341 16.91613932 9.31391034 16.92794489 11 17 C12 18 12 18 12 23 C7.38 23.33 2.76 23.66 -2 24 C-3.33332095 21.3333581 -2.67102033 19.83319697 -2 17 C-1.34 17 -0.68 17 0 17 C0 11.39 0 5.78 0 0 Z " fill="#C95B3B" transform="translate(235,269)"/>
<path d="M0 0 C0.66 0 1.32 0 2 0 C1.83242187 0.55429688 1.66484375 1.10859375 1.4921875 1.6796875 C1.28851563 2.40414062 1.08484375 3.12859375 0.875 3.875 C0.66617188 4.59429687 0.45734375 5.31359375 0.2421875 6.0546875 C0.16226563 6.69664062 0.08234375 7.33859375 0 8 C0.66 8.66 1.32 9.32 2 10 C1.34 10.66 0.68 11.32 0 12 C2.64 12 5.28 12 8 12 C8.28875 11.0925 8.5775 10.185 8.875 9.25 C9.76531776 6.67797092 10.71494413 4.38653234 12 2 C18.0546875 1.8046875 18.0546875 1.8046875 20 2 C20.66 2.66 21.32 3.32 22 4 C19.03 4 16.06 4 13 4 C12.79503906 4.71027344 12.59007812 5.42054688 12.37890625 6.15234375 C12.10949219 7.07144531 11.84007812 7.99054688 11.5625 8.9375 C11.29566406 9.85402344 11.02882812 10.77054688 10.75390625 11.71484375 C10 14 10 14 9 15 C6.81360547 15.07258946 4.62499611 15.08373783 2.4375 15.0625 C0.64119141 15.04896484 0.64119141 15.04896484 -1.19140625 15.03515625 C-2.11824219 15.02355469 -3.04507813 15.01195312 -4 15 C-5 13 -5 13 -4.00390625 9.9609375 C-3.52824219 8.77757812 -3.05257812 7.59421875 -2.5625 6.375 C-2.08941406 5.18648437 -1.61632812 3.99796875 -1.12890625 2.7734375 C-0.75636719 1.85820312 -0.38382813 0.94296875 0 0 Z " fill="#13213B" transform="translate(228,237)"/>
<path d="M0 0 C0.33 0 0.66 0 1 0 C1.33 3.96 1.66 7.92 2 12 C4.06242617 12.02717692 6.12495703 12.0464758 8.1875 12.0625 C9.33605469 12.07410156 10.48460937 12.08570313 11.66796875 12.09765625 C15.30468375 12.08406102 15.30468375 12.08406102 20 11 C20 7.37 20 3.74 20 0 C23 2 23 2 23.6875 4.625 C23.790625 5.40875 23.89375 6.1925 24 7 C24.99 7.33 25.98 7.66 27 8 C25.25 12.875 25.25 12.875 23 14 C22.34 13.67 21.68 13.34 21 13 C21 13.66 21 14.32 21 15 C20.01 14.67 19.02 14.34 18 14 C17.175 14.144375 16.35 14.28875 15.5 14.4375 C10.68317402 15.21163275 5.87061265 15.28211385 1 15 C0 14 0 14 -0.09765625 10.83984375 C-0.08025391 8.90818359 -0.08025391 8.90818359 -0.0625 6.9375 C-0.05347656 5.64714844 -0.04445313 4.35679687 -0.03515625 3.02734375 C-0.02355469 2.02832031 -0.01195312 1.02929688 0 0 Z M23 10 C24 12 24 12 24 12 Z " fill="#173357" transform="translate(301,206)"/>
<path d="M0 0 C0.99 0 1.98 0 3 0 C3 7.26 3 14.52 3 22 C1.68 22.33 0.36 22.66 -1 23 C-1.36279456 21.71073008 -1.71496698 20.41846728 -2.0625 19.125 C-2.25972656 18.40570313 -2.45695312 17.68640625 -2.66015625 16.9453125 C-3 15 -3 15 -2 13 C-1.34 13 -0.68 13 0 13 C0 8.71 0 4.42 0 0 Z " fill="#CF6A47" transform="translate(385,270)"/>
<path d="M0 0 C0.33 0 0.66 0 1 0 C1.06058594 0.75925781 1.12117188 1.51851563 1.18359375 2.30078125 C1.26738281 3.29464844 1.35117187 4.28851563 1.4375 5.3125 C1.55931641 6.79169922 1.55931641 6.79169922 1.68359375 8.30078125 C1.91812559 11.09375599 1.91812559 11.09375599 3 14 C4.8064655 15.0146239 4.8064655 15.0146239 7 15 C9.24755753 13.6483633 9.24755753 13.6483633 11 12 C11 13.98 11 15.96 11 18 C12.32 17.67 13.64 17.34 15 17 C12.65580789 20.02791481 10.78051778 21.31900177 7.0625 21.9375 C3.23161008 22.26688493 1.0719196 21.39993719 -2 19 C-1.67 18.34 -1.34 17.68 -1 17 C-0.360625 17.185625 0.27875 17.37125 0.9375 17.5625 C1.9584375 17.7790625 1.9584375 17.7790625 3 18 C3.33 17.67 3.66 17.34 4 17 C3.34515625 16.65324219 2.6903125 16.30648438 2.015625 15.94921875 C0 14 0 14 -0.390625 10.64453125 C-0.34421875 9.37996094 -0.2978125 8.11539062 -0.25 6.8125 C-0.21390625 5.54019531 -0.1778125 4.26789063 -0.140625 2.95703125 C-0.09421875 1.98121094 -0.0478125 1.00539063 0 0 Z " fill="#BA6045" transform="translate(260,271)"/>
<path d="M0 0 C0.33 0 0.66 0 1 0 C1 6.27 1 12.54 1 19 C-3 20 -3 20 -5 19 C-5 13.06 -5 7.12 -5 1 C-4.01 1.33 -3.02 1.66 -2 2 C-2.33 6.95 -2.66 11.9 -3 17 C-2.34 17 -1.68 17 -1 17 C-1.01160156 15.85660156 -1.02320313 14.71320313 -1.03515625 13.53515625 C-1.04453288 12.04427246 -1.05363321 10.55338691 -1.0625 9.0625 C-1.07087891 8.30775391 -1.07925781 7.55300781 -1.08789062 6.77539062 C-1.09652441 4.85005687 -1.05224333 2.92464419 -1 1 C-0.67 0.67 -0.34 0.34 0 0 Z " fill="#B66B51" transform="translate(298,273)"/>
<path d="M0 0 C4.12757874 3.1499943 6.63438484 5.17192418 7.6875 10.4375 C7.95027766 13.43316535 7.99772683 15.2285366 7 18 C6.01 18 5.02 18 4 18 C3.855625 18.639375 3.71125 19.27875 3.5625 19.9375 C3 22 3 22 2 23 C0.33382885 23.04063832 -1.33388095 23.042721 -3 23 C-2.67 22.34 -2.34 21.68 -2 21 C-1.34 21 -0.68 21 0 21 C0.103125 20.360625 0.20625 19.72125 0.3125 19.0625 C0.539375 18.381875 0.76625 17.70125 1 17 C1.99 16.67 2.98 16.34 4 16 C4.86850174 13.75124253 4.86850174 13.75124253 5 11 C2.93629409 7.83073735 1.15582724 6.10388482 -2 4 C-2 3.34 -2 2.68 -2 2 C-1.34 2 -0.68 2 0 2 C0 1.34 0 0.68 0 0 Z " fill="#D56643" transform="translate(212,267)"/>
<path d="M0 0 C1.32 0.66 2.64 1.32 4 2 C4 2.66 4 3.32 4 4 C1.5 5.625 1.5 5.625 -1 7 C-1 6.34 -1 5.68 -1 5 C-2.29243468 6.1241176 -3.58392075 7.24932592 -4.875 8.375 C-5.59429687 9.00148437 -6.31359375 9.62796875 -7.0546875 10.2734375 C-8.4076598 11.47426834 -9.7208345 12.7208345 -11 14 C-10.34 14.66 -9.68 15.32 -9 16 C-10.2065625 16.680625 -10.2065625 16.680625 -11.4375 17.375 C-14.08856572 18.74725665 -14.08856572 18.74725665 -15 21 C-18.0625 21.625 -18.0625 21.625 -21 22 C-16.61557474 16.74825074 -11.99157907 11.86777527 -7.125 7.0625 C-6.43664062 6.37865234 -5.74828125 5.69480469 -5.0390625 4.99023438 C-3.36166489 3.32448536 -1.68196209 1.6611378 0 0 Z " fill="#B6624C" transform="translate(105,239)"/>
<path d="M0 0 C1 2 1 2 0.43359375 3.875 C-2.31558935 9.73992395 -2.31558935 9.73992395 -6.125 11.1875 C-7.548125 11.5896875 -7.548125 11.5896875 -9 12 C-10.15521502 14.47130918 -10.15521502 14.47130918 -11 17 C-12.8125 18.0625 -12.8125 18.0625 -15 19 C-16.68889872 20.3050581 -18.3603279 21.63360658 -20 23 C-20.66 22.67 -21.32 22.34 -22 22 C-14.74 14.74 -7.48 7.48 0 0 Z " fill="#BD654E" transform="translate(110,202)"/>
<path d="M0 0 C4.95 0 9.9 0 15 0 C15.99 3.3 16.98 6.6 18 10 C22.29 10 26.58 10 31 10 C31 10.99 31 11.98 31 13 C26.38 13 21.76 13 17 13 C16.0234375 10.42838542 15.046875 7.85677083 14.0703125 5.28515625 C13.2180914 2.85058944 13.2180914 2.85058944 11 2 C9.29297265 1.93003986 7.58331997 1.91559846 5.875 1.9375 C4.96492187 1.94652344 4.05484375 1.95554688 3.1171875 1.96484375 C2.06917969 1.98224609 2.06917969 1.98224609 1 2 C0.67 1.34 0.34 0.68 0 0 Z " fill="#15263B" transform="translate(251,239)"/>
<path d="M0 0 C1.98 0 3.96 0 6 0 C6 8.25 6 16.5 6 25 C4.35 25.33 2.7 25.66 1 26 C0 25 0 25 -0.11352539 22.59155273 C-0.10828857 21.54942627 -0.10305176 20.5072998 -0.09765625 19.43359375 C-0.09443359 18.30888672 -0.09121094 17.18417969 -0.08789062 16.02539062 C-0.07951172 14.84138672 -0.07113281 13.65738281 -0.0625 12.4375 C-0.05798828 11.24962891 -0.05347656 10.06175781 -0.04882812 8.83789062 C-0.03699675 5.89187774 -0.02051287 2.94596319 0 0 Z M1 1 C1 8.26 1 15.52 1 23 C2.32 23 3.64 23 5 23 C5 15.74 5 8.48 5 1 C3.68 1 2.36 1 1 1 Z " fill="#A66454" transform="translate(315,267)"/>
<path d="M0 0 C1.65 0 3.3 0 5 0 C3.4972742 4.20763224 0.76667005 5.8027758 -3 8 C-3.66 8 -4.32 8 -5 8 C-1.04 13.94 -1.04 13.94 3 20 C2.67 20.66 2.34 21.32 2 22 C1.34 21.67 0.68 21.34 0 21 C0 20.01 0 19.02 0 18 C-1.65 17.67 -3.3 17.34 -5 17 C-6.6559633 11.68348624 -6.6559633 11.68348624 -7 9 C-5.75 7 -5.75 7 -4 6 C-3.34 6 -2.68 6 -2 6 C-0.99983813 3.99967627 -0.50603992 2.16874252 0 0 Z " fill="#162841" transform="translate(328,221)"/>
<path d="M0 0 C6.6 0 13.2 0 20 0 C20 1.98 20 3.96 20 6 C17.69 6 15.38 6 13 6 C13 5.67 13 5.34 13 5 C14.65 5 16.3 5 18 5 C18 4.01 18 3.02 18 2 C10.08 2.495 10.08 2.495 2 3 C3.32 3.99 4.64 4.98 6 6 C4.02 6 2.04 6 0 6 C0 4.02 0 2.04 0 0 Z " fill="#AF674F" transform="translate(286,267)"/>
<path d="M0 0 C0.66 0 1.32 0 2 0 C2.515625 0.99 3.03125 1.98 3.5625 3 C5.60689882 6.1852925 5.60689882 6.1852925 8.26171875 6.3984375 C10.53363117 6.37703801 12.74358657 6.2603554 15 6 C14.2236068 2.9254644 14.2236068 2.9254644 12 1 C12.99 0.67 13.98 0.34 15 0 C15.83905565 1.12073862 16.67107831 2.24674547 17.5 3.375 C18.19609375 4.31472656 18.19609375 4.31472656 18.90625 5.2734375 C20 7 20 7 20 9 C6.51462535 10.06865233 6.51462535 10.06865233 2.890625 7.51171875 C1.20515306 5.11735713 0 2.98214826 0 0 Z " fill="#19263B" transform="translate(317,243)"/>
<path d="M0 0 C3.68862535 0.49846289 5.68546144 1.0241647 8 4 C9.1875 6.1875 9.1875 6.1875 10 8 C11.98 7.67 13.96 7.34 16 7 C16.33 10.3 16.66 13.6 17 17 C10.98173262 12.02838782 5.33662648 6.70170757 0 1 C0 0.67 0 0.34 0 0 Z " fill="#C46346" transform="translate(127,242)"/>
<path d="M0 0 C-0.33 1.32 -0.66 2.64 -1 4 C-2.32 3.67 -3.64 3.34 -5 3 C-5.4021875 4.2065625 -5.4021875 4.2065625 -5.8125 5.4375 C-6.204375 6.283125 -6.59625 7.12875 -7 8 C-7.99 8.33 -8.98 8.66 -10 9 C-9.01 11.64 -8.02 14.28 -7 17 C-7.99 16.67 -8.98 16.34 -10 16 C-11.75742033 12.48515934 -11.13242891 8.5891469 -10.8125 4.75 C-8.75544409 0.31941804 -4.45627622 -0.38196653 0 0 Z " fill="#D56849" transform="translate(207,269)"/>
<path d="M0 0 C4.29 0 8.58 0 13 0 C13.33 1.32 13.66 2.64 14 4 C10.37 3.34 6.74 2.68 3 2 C3.66 5.96 4.32 9.92 5 14 C2.20918661 12.6045933 1.96096994 10.98580959 0.8125 8.125 C0.26529297 6.79855469 0.26529297 6.79855469 -0.29296875 5.4453125 C-1 3 -1 3 0 0 Z " fill="#162235" transform="translate(341,191)"/>
<path d="M0 0 C0.33 0.66 0.66 1.32 1 2 C1.66 2 2.32 2 3 2 C3.24954005 3.43410368 3.47392642 4.87260072 3.6875 6.3125 C3.81511719 7.11300781 3.94273437 7.91351563 4.07421875 8.73828125 C4 11 4 11 2.75 12.8125 C1 14 1 14 -2.6875 13.6875 C-3.780625 13.460625 -4.87375 13.23375 -6 13 C-5.67 12.34 -5.34 11.68 -5 11 C-2.4375 10.375 -2.4375 10.375 0 10 C0.33 8.35 0.66 6.7 1 5 C0.01 4.67 -0.98 4.34 -2 4 C-2 3.01 -2 2.02 -2 1 C-1.34 0.67 -0.68 0.34 0 0 Z " fill="#D16643" transform="translate(179,277)"/>
<path d="M0 0 C3.47129192 0.938187 4.77084235 1.66021452 6.8125 4.6875 C8.3684403 9.02775453 8.83996253 12.43785013 7.37890625 16.89453125 C5.54881371 20.75805994 3.76845473 22.4198921 -0.25 23.9375 C-1.4875 24.288125 -2.725 24.63875 -4 25 C-4.33 24.34 -4.66 23.68 -5 23 C-3.865625 22.566875 -2.73125 22.13375 -1.5625 21.6875 C-0.386875 21.130625 0.78875 20.57375 2 20 C2.33 19.01 2.66 18.02 3 17 C3.99 17 4.98 17 6 17 C5.99388572 9.09207518 5.99388572 9.09207518 2.4375 2.3125 C1.633125 1.549375 0.82875 0.78625 0 0 Z " fill="#B0634F" transform="translate(213,268)"/>
<path d="M0 0 C0.66 0.33 1.32 0.66 2 1 C2.02709444 3.08326131 2.04643873 5.16662441 2.0625 7.25 C2.07410156 8.41015625 2.08570313 9.5703125 2.09765625 10.765625 C2 14 2 14 1 18 C-2.96 18 -6.92 18 -11 18 C-10.505 16.515 -10.505 16.515 -10 15 C-7.03 15.33 -4.06 15.66 -1 16 C-0.67 10.72 -0.34 5.44 0 0 Z " fill="#101E36" transform="translate(301,234)"/>
<path d="M0 0 C0.66 0.66 1.32 1.32 2 2 C1 5 0 8 -1 11 C-1.31195313 11.95003906 -1.62390625 12.90007812 -1.9453125 13.87890625 C-3.07235462 17.21411608 -4.264282 20.51599619 -5.5 23.8125 C-5.9228125 24.95332031 -6.345625 26.09414062 -6.78125 27.26953125 C-8 30 -8 30 -10 31 C-8.43585764 24.15070292 -6.2191805 17.61837533 -3.875 11 C-3.50246094 9.93910156 -3.12992187 8.87820312 -2.74609375 7.78515625 C-1.83391754 5.18896243 -0.91848405 2.59396747 0 0 Z " fill="#16263C" transform="translate(382,197)"/>
<path d="M0 0 C0.99 0 1.98 0 3 0 C3 0.66 3 1.32 3 2 C2.34 2 1.68 2 1 2 C1 2.66 1 3.32 1 4 C0.34 4 -0.32 4 -1 4 C-1 4.66 -1 5.32 -1 6 C-1.66 6 -2.32 6 -3 6 C-3.226875 6.5775 -3.45375 7.155 -3.6875 7.75 C-5.33038023 10.5663661 -7.39533227 12.08077114 -10 14 C-9.43628586 10.73045798 -8.50037734 9.17424117 -6 7 C-6.99 6.319375 -6.99 6.319375 -8 5.625 C-8.66 5.08875 -9.32 4.5525 -10 4 C-10 3.34 -10 2.68 -10 2 C-8.68 2 -7.36 2 -6 2 C-6 2.66 -6 3.32 -6 4 C-2.27385847 2.88145414 -2.27385847 2.88145414 0 0 Z " fill="#C46542" transform="translate(100,228)"/>
<path d="M0 0 C1.9375 0.375 1.9375 0.375 4 1 C5.54586876 4.09173752 5.29359521 6.59429552 5 10 C2.96021132 12.98122961 1.57437299 13.82519083 -1.875 14.875 C-5.37527431 15.01501097 -7.77274722 14.30626898 -11 13 C-11 12.67 -11 12.34 -11 12 C-7.37 12 -3.74 12 0 12 C2.10814567 7.78370866 2.17700355 5.60209225 2 1 C1.34 0.67 0.68 0.34 0 0 Z " fill="#B26551" transform="translate(180,278)"/>
<path d="M0 0 C0.99 0.33 1.98 0.66 3 1 C3.6875 3.0625 3.6875 3.0625 4 5 C5.95901454 4.88617347 7.9172338 4.75858875 9.875 4.625 C11.51082031 4.52058594 11.51082031 4.52058594 13.1796875 4.4140625 C16.13046474 4.26746509 16.13046474 4.26746509 18 2 C18.66 3.65 19.32 5.3 20 7 C17.41414795 7.16236745 14.83848046 7.28095486 12.25 7.375 C11.52039063 7.42527344 10.79078125 7.47554687 10.0390625 7.52734375 C7.890625 7.5859375 7.890625 7.5859375 4 7 C0 2.29192547 0 2.29192547 0 0 Z " fill="#18293D" transform="translate(201,245)"/>
<path d="M0 0 C1.98 0 3.96 0 6 0 C6 8.25 6 16.5 6 25 C5.67 25 5.34 25 5 25 C4.67 17.74 4.34 10.48 4 3 C3.01 2.67 2.02 2.34 1 2 C1 5.96 1 9.92 1 14 C0.67 14 0.34 14 0 14 C0 9.38 0 4.76 0 0 Z " fill="#A66857" transform="translate(383,267)"/>
<path d="M0 0 C1.21730284 3.65190853 0.64600214 4.53670162 -0.8125 8 C-1.16957031 8.86625 -1.52664063 9.7325 -1.89453125 10.625 C-3 13 -3 13 -5 16 C-6 13 -6 13 -6 9 C-6.66 8.67 -7.32 8.34 -8 8 C-8 7.34 -8 6.68 -8 6 C-6 4.375 -6 4.375 -4 3 C-4 3.66 -4 4.32 -4 5 C-3.34 5 -2.68 5 -2 5 C-1.855625 4.360625 -1.71125 3.72125 -1.5625 3.0625 C-1 1 -1 1 0 0 Z " fill="#152D46" transform="translate(383,230)"/>
<path d="M0 0 C2.64 0 5.28 0 8 0 C8.66 1.65 9.32 3.3 10 5 C9.62875 4.525625 9.2575 4.05125 8.875 3.5625 C6.38006257 1.48338547 4.16711301 1.44202255 1 1 C1.08060591 4.62592996 1.19346817 8.25014402 1.3125 11.875 C1.33505859 12.90753906 1.35761719 13.94007813 1.38085938 15.00390625 C1.41630859 15.99003906 1.45175781 16.97617187 1.48828125 17.9921875 C1.51446533 18.90339355 1.54064941 19.81459961 1.56762695 20.75341797 C1.71031006 21.49479004 1.85299316 22.23616211 2 23 C2.99 23.66 3.98 24.32 5 25 C3.0625 25.5625 3.0625 25.5625 1 26 C0 25 0 25 -0.11352539 22.59155273 C-0.10828857 21.54942627 -0.10305176 20.5072998 -0.09765625 19.43359375 C-0.09443359 18.30888672 -0.09121094 17.18417969 -0.08789062 16.02539062 C-0.07951172 14.84138672 -0.07113281 13.65738281 -0.0625 12.4375 C-0.05798828 11.24962891 -0.05347656 10.06175781 -0.04882812 8.83789062 C-0.03699675 5.89187774 -0.02051287 2.94596319 0 0 Z " fill="#AF6B57" transform="translate(366,267)"/>
<path d="M0 0 C1.31291016 -0.03867187 1.31291016 -0.03867187 2.65234375 -0.078125 C5.4818869 0.30709643 6.31382925 1.05694757 8.0625 3.25 C6.85546875 4.76953125 6.85546875 4.76953125 5.0625 6.25 C2.80078125 6.32421875 2.80078125 6.32421875 0.375 5.9375 C-0.43324219 5.81761719 -1.24148438 5.69773437 -2.07421875 5.57421875 C-2.68910156 5.46722656 -3.30398438 5.36023438 -3.9375 5.25 C-3.6075 4.59 -3.2775 3.93 -2.9375 3.25 C-0.9575 3.25 1.0225 3.25 3.0625 3.25 C2.7325 2.92 2.4025 2.59 2.0625 2.25 C0.53730724 2.33937803 -0.98431929 2.49537146 -2.5 2.6875 C-3.32628906 2.78933594 -4.15257812 2.89117187 -5.00390625 2.99609375 C-5.64199219 3.07988281 -6.28007812 3.16367187 -6.9375 3.25 C-6.9375 2.59 -6.9375 1.93 -6.9375 1.25 C-4.48367866 0.02308933 -2.73765897 0.04824069 0 0 Z " fill="#AF5F45" transform="translate(409.9375,266.75)"/>
<path d="M0 0 C5.62470954 5.09739302 11.58472519 11.75417556 14 19 C13.01 18.67 12.02 18.34 11 18 C11 17.34 11 16.68 11 16 C10.39285156 15.93554688 9.78570312 15.87109375 9.16015625 15.8046875 C7 15 7 15 5.62109375 12.8203125 C5.23050781 11.93085938 4.83992187 11.04140625 4.4375 10.125 C2.96947566 6.82314853 1.73619031 4.3951579 -1 2 C-0.67 1.34 -0.34 0.68 0 0 Z " fill="#17253A" transform="translate(204,228)"/>
<path d="M0 0 C0.66 0.66 1.32 1.32 2 2 C0.7934375 3.0828125 0.7934375 3.0828125 -0.4375 4.1875 C-3.02292072 7.02515689 -3.68042813 8.27166147 -4 12 C-4.99 11.67 -5.98 11.34 -7 11 C-10.43431346 12.21862736 -12.54300608 14.36750651 -15 17 C-15.66 16.67 -16.32 16.34 -17 16 C-12.35344118 11.24222036 -7.61171109 6.68207665 -2.56640625 2.34765625 C-1.68751602 1.59150381 -0.81982149 0.81982149 0 0 Z " fill="#C86443" transform="translate(141,204)"/>
<path d="M0 0 C1.25541557 3.76624671 0.37061958 5.37188934 -1 9 C2.96 9 6.92 9 11 9 C10.67 9.66 10.34 10.32 10 11 C6.04 11 2.08 11 -2 11 C-2.66 9.68 -3.32 8.36 -4 7 C-3.06434658 4.35435928 -1.54985485 2.37036624 0 0 Z " fill="#162940" transform="translate(248,219)"/>
<path d="M0 0 C3.26522884 3.26522884 4.18880346 7.63362797 5.6875 11.9375 C6.02072266 12.85724609 6.35394531 13.77699219 6.69726562 14.72460938 C7.00728516 15.60826172 7.31730469 16.49191406 7.63671875 17.40234375 C7.92248779 18.21179443 8.20825684 19.02124512 8.50268555 19.85522461 C9 22 9 22 8 25 C7.33333333 23.66666667 6.66666667 22.33333333 6 21 C5.67902344 20.38125 5.35804688 19.7625 5.02734375 19.125 C2.05153959 12.96972447 0.61610748 6.77718226 0 0 Z " fill="#162841" transform="translate(359,206)"/>
<path d="M0 0 C2.475 0.495 2.475 0.495 5 1 C5 1.66 5 2.32 5 3 C4.01 3.33 3.02 3.66 2 4 C3.32 4.33 4.64 4.66 6 5 C5.01 5.66 4.02 6.32 3 7 C2.63469768 10.12557959 2.63469768 10.12557959 2.8125 13.625 C2.83957031 14.81351562 2.86664063 16.00203125 2.89453125 17.2265625 C2.94673828 18.59941406 2.94673828 18.59941406 3 20 C2.01 19.67 1.02 19.34 0 19 C0.495 17.515 0.495 17.515 1 16 C1.13551606 11.73124408 1.17441531 8.11045358 0 4 C0 2.68 0 1.36 0 0 Z " fill="#DC6A41" transform="translate(368,270)"/>
<path d="M0 0 C0.33 0 0.66 0 1 0 C1.33 3.96 1.66 7.92 2 12 C4.04159095 12.0272616 6.08328963 12.04651345 8.125 12.0625 C9.83042969 12.07990234 9.83042969 12.07990234 11.5703125 12.09765625 C14.8129156 12.005327 17.81932612 11.61389906 21 11 C19.2976954 13.17516698 18.18957481 13.94786693 15.5 14.6875 C10.67522158 15.11828379 5.83939541 15.2803057 1 15 C0 14 0 14 -0.09765625 10.83984375 C-0.08025391 8.90818359 -0.08025391 8.90818359 -0.0625 6.9375 C-0.05347656 5.64714844 -0.04445313 4.35679687 -0.03515625 3.02734375 C-0.02355469 2.02832031 -0.01195312 1.02929688 0 0 Z " fill="#192940" transform="translate(301,206)"/>
<path d="M0 0 C5.49152542 0.61016949 5.49152542 0.61016949 7.875 2.4375 C9 4 9 4 9 6 C6.33438378 6.98726527 5.09873015 7.0275526 2.3125 6.25 C0 5 0 5 -1 2 C-0.67 1.34 -0.34 0.68 0 0 Z " fill="#CD603D" transform="translate(406,277)"/>
<path d="M0 0 C2.20805524 -0.0544452 4.41650554 -0.09299283 6.625 -0.125 C7.85476563 -0.14820313 9.08453125 -0.17140625 10.3515625 -0.1953125 C13.94316041 -0.0030428 16.66661175 0.69741444 20 2 C19.67 2.66 19.34 3.32 19 4 C18.42024414 3.83701416 17.84048828 3.67402832 17.24316406 3.50610352 C13.77326877 2.72322444 10.287377 2.89687641 6.75 2.9375 C5.63238281 2.94426758 5.63238281 2.94426758 4.4921875 2.95117188 C2.6614236 2.96290754 0.83070127 2.9808415 -1 3 C-0.67 2.01 -0.34 1.02 0 0 Z " fill="#192C43" transform="translate(302,202)"/>
<path d="M0 0 C0.928125 0.20625 1.85625 0.4125 2.8125 0.625 C2.8125 1.285 2.8125 1.945 2.8125 2.625 C1.8225 3.285 0.8325 3.945 -0.1875 4.625 C-1.39200304 7.17683404 -1.39200304 7.17683404 -2.1875 9.625 C-3.75 8.375 -3.75 8.375 -5.1875 6.625 C-4.875 4.4375 -4.875 4.4375 -4.1875 2.625 C-4.8475 2.295 -5.5075 1.965 -6.1875 1.625 C-3.1875 -0.375 -3.1875 -0.375 0 0 Z " fill="#D2856C" transform="translate(63.1875,179.375)"/>
<path d="M0 0 C0.08090971 1.62418745 0.13914995 3.24951745 0.1875 4.875 C0.22230469 5.77992188 0.25710938 6.68484375 0.29296875 7.6171875 C0.19628906 8.40351563 0.09960938 9.18984375 0 10 C-0.99 10.66 -1.98 11.32 -3 12 C-4.75456919 6.73629243 -4.75456919 6.73629243 -5 4 C-2.1 0 -2.1 0 0 0 Z " fill="#D7643F" transform="translate(387,281)"/>
<path d="M0 0 C0.66 0 1.32 0 2 0 C1.83242187 0.55429688 1.66484375 1.10859375 1.4921875 1.6796875 C1.28851563 2.40414062 1.08484375 3.12859375 0.875 3.875 C0.56175781 4.95394531 0.56175781 4.95394531 0.2421875 6.0546875 C0.16226563 6.69664062 0.08234375 7.33859375 0 8 C0.66 8.66 1.32 9.32 2 10 C1.34 10.66 0.68 11.32 0 12 C1.98 12 3.96 12 6 12 C6 12.66 6 13.32 6 14 C-0.15234375 14.09765625 -0.15234375 14.09765625 -2 14 C-2.33 13.67 -2.66 13.34 -3 13 C-2.60537976 8.26455717 -2.03464238 4.34057042 0 0 Z " fill="#172942" transform="translate(228,237)"/>
<path d="M0 0 C1.875 0.3125 1.875 0.3125 4 1 C6.56687367 4.8503105 5.83288724 6.58569763 5 11 C4.34 9.68 3.68 8.36 3 7 C2.62875 7.495 2.2575 7.99 1.875 8.5 C-0.74694393 10.59755514 -2.73842472 10.21743835 -6 10 C-6 9.67 -6 9.34 -6 9 C-5.21625 8.896875 -4.4325 8.79375 -3.625 8.6875 C-0.66954819 8.22404978 -0.66954819 8.22404978 1 5 C1.66 5 2.32 5 3 5 C2.65213292 3.02463255 2.65213292 3.02463255 2 1 C1.34 0.67 0.68 0.34 0 0 Z " fill="#B4614B" transform="translate(412,278)"/>
<path d="M0 0 C2.31 0 4.62 0 7 0 C6.67 2.97 6.34 5.94 6 9 C3.69 7.02 1.38 5.04 -1 3 C-0.67 2.01 -0.34 1.02 0 0 Z " fill="#DA6642" transform="translate(121,233)"/>
<path d="M0 0 C8.38201418 2.00324867 8.38201418 2.00324867 10.9375 6.125 C11.288125 7.07375 11.63875 8.0225 12 9 C12.66 9.33 13.32 9.66 14 10 C14.625 12.0625 14.625 12.0625 15 14 C14.01 14.495 14.01 14.495 13 15 C11.99466333 13.37829621 10.99588093 11.75252763 10 10.125 C9.443125 9.22007812 8.88625 8.31515625 8.3125 7.3828125 C7 5 7 5 7 3 C4.36 3 1.72 3 -1 3 C-0.67 2.01 -0.34 1.02 0 0 Z " fill="#16273B" transform="translate(303,228)"/>
<path d="M0 0 C1.64574566 -0.02688151 3.29161413 -0.04634123 4.9375 -0.0625 C5.85402344 -0.07410156 6.77054688 -0.08570313 7.71484375 -0.09765625 C10 0 10 0 11 1 C11.04063832 2.66617115 11.042721 4.33388095 11 6 C8.03 6 5.06 6 2 6 C2 5.67 2 5.34 2 5 C4.31 5 6.62 5 9 5 C9 4.01 9 3.02 9 2 C6.03 2 3.06 2 0 2 C0 1.34 0 0.68 0 0 Z " fill="#B05B43" transform="translate(236,286)"/>
<path d="M0 0 C0.66666667 1.33333333 1.33333333 2.66666667 2 4 C2.495 4.86625 2.99 5.7325 3.5 6.625 C5.43495164 10.97864119 6.21405221 15.32129903 7 20 C4.62803926 17.88043653 3.51417003 16.25057444 2.61328125 13.20703125 C2.39736328 12.49482422 2.18144531 11.78261719 1.95898438 11.04882812 C1.63897461 9.9418457 1.63897461 9.9418457 1.3125 8.8125 C1.08755859 8.06291016 0.86261719 7.31332031 0.63085938 6.54101562 C0.07869367 4.69654721 -0.46180221 2.8485924 -1 1 C-0.67 0.67 -0.34 0.34 0 0 Z " fill="#172941" transform="translate(254,209)"/>
<path d="M0 0 C1.32 0.33 2.64 0.66 4 1 C3.01 1.66 2.02 2.32 1 3 C2.41543415 3.19658808 3.83244031 3.38187546 5.25 3.5625 C6.03890625 3.66691406 6.8278125 3.77132813 7.640625 3.87890625 C10.00532874 4.00027349 11.7511037 3.69633257 14 3 C12.2256972 5.26716469 11.02851124 5.99092824 8.25 6.875 C4.01543524 7.03786788 1.76486427 5.88243213 -2 4 C-1.34 2.68 -0.68 1.36 0 0 Z " fill="#AF634C" transform="translate(402,286)"/>
<path d="M0 0 C1.4783226 2.95664519 1.06032783 5.74229737 1 9 C-0.98 8.34 -2.96 7.68 -5 7 C-5 5.35 -5 3.7 -5 2 C-4.01 2.33 -3.02 2.66 -2 3 C-2 2.34 -2 1.68 -2 1 C-1.34 0.67 -0.68 0.34 0 0 Z " fill="#C76140" transform="translate(336,275)"/>
<path d="M0 0 C4.29 0 8.58 0 13 0 C13 0.33 13 0.66 13 1 C9.7 1 6.4 1 3 1 C1.92474806 3.65228812 0.90543849 6.28368454 0 9 C-0.66 9 -1.32 9 -2 9 C-1.51421457 5.87709365 -1.0013988 3.00419641 0 0 Z " fill="#1E3048" transform="translate(245,192)"/>
<path d="M0 0 C2.56538479 2.56538479 3.37357879 5.06045896 4.6875 8.4375 C5.14511719 9.59121094 5.60273438 10.74492187 6.07421875 11.93359375 C7 15 7 15 6 18 C1.50355658 13.50355658 0.65150862 6.12418104 0 0 Z " fill="#17263B" transform="translate(271,223)"/>
<path d="M0 0 C1 2 1 2 0.3984375 3.91015625 C-2.39218033 9.77897467 -2.39218033 9.77897467 -5.75 11 C-6.4925 11 -7.235 11 -8 11 C-5.9785845 6.42521756 -3.68006822 3.38168431 0 0 Z " fill="#C86448" transform="translate(110,202)"/>
<path d="M0 0 C0 0.99 0 1.98 0 3 C-1 4 -2 5 -3 6 C-4.16271218 9.00367313 -3.97744926 10.95904675 -3 14 C-4.65 12.35 -6.3 10.7 -8 9 C-7.04270084 7.87411986 -6.08412105 6.7493285 -5.125 5.625 C-4.59132813 4.99851563 -4.05765625 4.37203125 -3.5078125 3.7265625 C-2.38567993 2.44163349 -1.20628025 1.20628025 0 0 Z " fill="#B6644A" transform="translate(123,221)"/>
<path d="M0 0 C0.66 0 1.32 0 2 0 C2 0.66 2 1.32 2 2 C2.99 2.33 3.98 2.66 5 3 C4.67 4.65 4.34 6.3 4 8 C2.68 8 1.36 8 0 8 C-1.125 2.25 -1.125 2.25 0 0 Z " fill="#D06443" transform="translate(170,270)"/>
<path d="M0 0 C0.33 0 0.66 0 1 0 C1 5.94 1 11.88 1 18 C1.99 18 2.98 18 4 18 C4 18.99 4 19.98 4 21 C2.68 20.67 1.36 20.34 0 20 C0 13.4 0 6.8 0 0 Z " fill="#AF6D59" transform="translate(315,272)"/>
<path d="M0 0 C3.71323586 0.50178863 5.66276162 1.02533297 8 4 C9.75 6.5625 9.75 6.5625 11 9 C10.67 9.66 10.34 10.32 10 11 C8.33035479 9.35718838 6.6643536 7.71067239 5 6.0625 C4.071875 5.14597656 3.14375 4.22945312 2.1875 3.28515625 C0 1 0 1 0 0 Z " fill="#BE6B51" transform="translate(127,242)"/>
<path d="M0 0 C-3.3 3.3 -6.6 6.6 -10 10 C-10 9.01 -10 8.02 -10 7 C-9 6 -8 5 -7 4 C-6.64830932 2.67139075 -6.31229724 1.33841672 -6 0 C-4 -1 -4 -1 0 0 Z " fill="#B86148" transform="translate(121,212)"/>
<path d="M0 0 C1.32 0 2.64 0 4 0 C4.33 2.97 4.66 5.94 5 9 C4.01 9 3.02 9 2 9 C1.855625 7.88625 1.71125 6.7725 1.5625 5.625 C1.21627965 2.17857953 1.21627965 2.17857953 0 0 Z " fill="#D86845" transform="translate(350,273)"/>
<path d="M0 0 C-0.804375 0.45375 -1.60875 0.9075 -2.4375 1.375 C-5.08856572 2.74725665 -5.08856572 2.74725665 -6 5 C-9.0625 5.625 -9.0625 5.625 -12 6 C-6 -2.14285714 -6 -2.14285714 0 0 Z " fill="#C86645" transform="translate(96,255)"/>
<path d="M0 0 C1 3 1 3 1 6 C2.32 5.67 3.64 5.34 5 5 C4.01 6.485 4.01 6.485 3 8 C0.03 7.505 0.03 7.505 -3 7 C-3 3 -3 3 -1.5 1.25 C-1.005 0.8375 -0.51 0.425 0 0 Z " fill="#B6674F" transform="translate(270,283)"/>
<path d="M0 0 C0.185625 0.9590625 0.185625 0.9590625 0.375 1.9375 C0.684375 2.9584375 0.684375 2.9584375 1 4 C1.66 4.33 2.32 4.66 3 5 C1.625 7.5 1.625 7.5 0 10 C-0.66 10 -1.32 10 -2 10 C-2.625 8.125 -2.625 8.125 -3 6 C-2.34 5.34 -1.68 4.68 -1 4 C-0.3574765 1.93125966 -0.3574765 1.93125966 0 0 Z " fill="#CD5E3E" transform="translate(351,278)"/>
<path d="M0 0 C-0.66 0.66 -1.32 1.32 -2 2 C-3.66666667 2 -5.33333333 2 -7 2 C-9.73774618 2.92745649 -9.73774618 2.92745649 -12 4 C-11.1875 2.0625 -11.1875 2.0625 -10 0 C-6.30581799 -1.231394 -3.7943739 -0.64432764 0 0 Z " fill="#D4684A" transform="translate(414,269)"/>
<path d="M0 0 C0.99 0.33 1.98 0.66 3 1 C3 3.64 3 6.28 3 9 C2.34 9 1.68 9 1 9 C-0.4783226 6.04335481 -0.06032783 3.25770263 0 0 Z " fill="#D4643B" transform="translate(367,277)"/>
<path d="M0 0 C-0.33 1.32 -0.66 2.64 -1 4 C-1.928125 3.979375 -2.85625 3.95875 -3.8125 3.9375 C-7.02286011 3.84230396 -7.02286011 3.84230396 -10 5 C-10 4.34 -10 3.68 -10 3 C-6.58168085 0.4606772 -4.24223102 -0.3636198 0 0 Z " fill="#D35F3B" transform="translate(207,269)"/>
<path d="M0 0 C0.66 0 1.32 0 2 0 C2.12375 0.78375 2.2475 1.5675 2.375 2.375 C2.79117993 5.14057822 2.79117993 5.14057822 5 7 C5.39764263 8.98821313 5.73775349 10.98944339 6 13 C5.34 13 4.68 13 4 13 C3.32694982 11.39850114 2.66177773 9.79368971 2 8.1875 C1.62875 7.29417969 1.2575 6.40085938 0.875 5.48046875 C0 3 0 3 0 0 Z " fill="#17273D" transform="translate(347,208)"/>
<path d="M0 0 C0.33 0.66 0.66 1.32 1 2 C1.66 2 2.32 2 3 2 C3 3.98 3 5.96 3 8 C2.34 7.67 1.68 7.34 1 7 C1 6.34 1 5.68 1 5 C0.01 4.67 -0.98 4.34 -2 4 C-2 3.01 -2 2.02 -2 1 C-1.34 0.67 -0.68 0.34 0 0 Z " fill="#D55F3D" transform="translate(179,277)"/>
<path d="M0 0 C1.31611677 0.95336021 2.62778961 1.91285774 3.9375 2.875 C4.66839844 3.40867187 5.39929688 3.94234375 6.15234375 4.4921875 C8 6 8 6 9 8 C5.625 7.375 5.625 7.375 2 6 C0.5625 2.875 0.5625 2.875 0 0 Z " fill="#BD674D" transform="translate(122,256)"/>
<path d="M0 0 C2.66666667 0 5.33333333 0 8 0 C7.34 1.32 6.68 2.64 6 4 C3.03 3.505 3.03 3.505 0 3 C0 2.01 0 1.02 0 0 Z " fill="#D05A39" transform="translate(102,221)"/>
<path d="M0 0 C0.66 0.33 1.32 0.66 2 1 C0.54782324 2.50596108 -0.91192861 4.00462104 -2.375 5.5 C-3.18710938 6.3353125 -3.99921875 7.170625 -4.8359375 8.03125 C-7 10 -7 10 -9 10 C-9 9.34 -9 8.68 -9 8 C-7.3603279 6.63360658 -5.68889872 5.3050581 -4 4 C-2.64852862 2.68505488 -1.30887458 1.35735142 0 0 Z " fill="#AC6350" transform="translate(130,200)"/>
<path d="M0 0 C0.66 0.33 1.32 0.66 2 1 C-0.64 3.97 -3.28 6.94 -6 10 C-6.33 9.34 -6.66 8.68 -7 8 C-4.69 5.36 -2.38 2.72 0 0 Z " fill="#13253E" transform="translate(212,198)"/>
<path d="M0 0 C2.31 0 4.62 0 7 0 C7 0.99 7 1.98 7 3 C4.69 3 2.38 3 0 3 C0 2.01 0 1.02 0 0 Z " fill="#D56741" transform="translate(238,288)"/>
<path d="M0 0 C2.92879371 0.62759865 5.36095629 1.58622659 8 3 C8 3.33 8 3.66 8 4 C4.625 4.125 4.625 4.125 1 4 C0.34 3.34 -0.32 2.68 -1 2 C-0.67 1.34 -0.34 0.68 0 0 Z " fill="#D56844" transform="translate(338,287)"/>
<path d="M0 0 C1.32 0.66 2.64 1.32 4 2 C4 2.66 4 3.32 4 4 C1.5 5.625 1.5 5.625 -1 7 C-2 4 -2 4 -1.0625 1.8125 C-0.5365625 0.9153125 -0.5365625 0.9153125 0 0 Z " fill="#C2684D" transform="translate(105,239)"/>
<path d="M0 0 C0.33 0 0.66 0 1 0 C1 4.29 1 8.58 1 13 C0.01 13.33 -0.98 13.66 -2 14 C-1.34 9.38 -0.68 4.76 0 0 Z " fill="#CC6B4A" transform="translate(259,272)"/>
<path d="M0 0 C2.52588702 2.36292656 3.88820837 3.66462511 5 7 C3.68 7.33 2.36 7.66 1 8 C0.814375 6.824375 0.814375 6.824375 0.625 5.625 C0.20882007 2.85942178 0.20882007 2.85942178 -2 1 C-1.34 0.67 -0.68 0.34 0 0 Z " fill="#1D2F46" transform="translate(331,243)"/>
<path d="M0 0 C0.99 0.495 0.99 0.495 2 1 C2 1.66 2 2.32 2 3 C2.928125 3.12375 2.928125 3.12375 3.875 3.25 C6 4 6 4 7.25 6.0625 C7.4975 6.701875 7.745 7.34125 8 8 C7.01 7.67 6.02 7.34 5 7 C5 6.34 5 5.68 5 5 C3.68 4.67 2.36 4.34 1 4 C0.67 2.68 0.34 1.36 0 0 Z " fill="#1B2A49" transform="translate(210,239)"/>
<path d="M0 0 C0.66 0.66 1.32 1.32 2 2 C0.625 4.5 0.625 4.5 -1 7 C-1.66 7 -2.32 7 -3 7 C-3.33 5.68 -3.66 4.36 -4 3 C-2.68 2.01 -1.36 1.02 0 0 Z " fill="#193453" transform="translate(382,228)"/>
<path d="M0 0 C3 2 3 2 3.8125 3.875 C4.04398726 6.49852224 3.34771696 7.78023089 2 10 C1.34 9.67 0.68 9.34 0 9 C0 6.03 0 3.06 0 0 Z " fill="#18293F" transform="translate(321,206)"/>
<path d="M0 0 C1.32 1.65 2.64 3.3 4 5 C3.34 5.66 2.68 6.32 2 7 C0 5.625 0 5.625 -2 4 C-2 3.34 -2 2.68 -2 2 C-1.34 2 -0.68 2 0 2 C0 1.34 0 0.68 0 0 Z " fill="#DA5E3F" transform="translate(212,267)"/>
<path d="M0 0 C3.08089673 2.77280706 4.68775452 5.06326356 6 9 C5.01 8.67 4.02 8.34 3 8 C3 7.34 3 6.68 3 6 C2.34 6 1.68 6 1 6 C0.67 4.02 0.34 2.04 0 0 Z " fill="#B56647" transform="translate(376,272)"/>
<path d="M0 0 C2.64 0.33 5.28 0.66 8 1 C7.67 1.66 7.34 2.32 7 3 C4.36 3 1.72 3 -1 3 C-0.67 2.01 -0.34 1.02 0 0 Z " fill="#18263B" transform="translate(291,249)"/>
<path d="M0 0 C1.32 0 2.64 0 4 0 C6.35953094 2.35953094 6.49141413 3.77895617 7 7 C5.83040013 6.02433888 4.66438823 5.044375 3.5 4.0625 C2.8503125 3.51722656 2.200625 2.97195312 1.53125 2.41015625 C1.0259375 1.94480469 0.520625 1.47945312 0 1 C0 0.67 0 0.34 0 0 Z " fill="#BF664E" transform="translate(120,235)"/>
<path d="M0 0 C0.66 0 1.32 0 2 0 C0.70700306 2.88437779 -0.65941363 4.87219421 -3 7 C-3.66 6.67 -4.32 6.34 -5 6 C-3.38405168 3.95880212 -1.7143618 1.95927063 0 0 Z " fill="#15273D" transform="translate(200,211)"/>
<path d="M0 0 C-1.49097658 3.7952131 -3.75700849 5.61042731 -7 8 C-6.44414399 4.1090079 -4.34122117 0 0 0 Z " fill="#B65F4C" transform="translate(97,234)"/>
<path d="M0 0 C1.32 0 2.64 0 4 0 C2.63016497 3.16115776 2.0109362 3.9927092 -1 6 C-0.67 4.02 -0.34 2.04 0 0 Z " fill="#1E2B44" transform="translate(215,192)"/>
</svg>
